<svg width="22" height="23" viewBox="0 0 22 23" fill="none" xmlns="http://www.w3.org/2000/svg">
<path d="M4.125 5.07031C4.125 4.34097 4.41473 3.64149 4.93046 3.12577C5.44618 2.61004 6.14565 2.32031 6.875 2.32031C7.60435 2.32031 8.30382 2.61004 8.81954 3.12577C9.33527 3.64149 9.625 4.34097 9.625 5.07031C9.625 5.79966 9.33527 6.49913 8.81954 7.01486C8.30382 7.53058 7.60435 7.82031 6.875 7.82031C6.14565 7.82031 5.44618 7.53058 4.93046 7.01486C4.41473 6.49913 4.125 5.79966 4.125 5.07031ZM13.4461 7.24831L13.5039 7.29231C14.0873 7.72476 14.818 7.90889 15.5367 7.80452C16.2554 7.70014 16.9036 7.31575 17.3399 6.73521C17.7761 6.15468 17.9651 5.42513 17.8655 4.7058C17.7658 3.98647 17.3857 3.33574 16.8081 2.89563C16.2304 2.45552 15.5022 2.26176 14.7822 2.35664C14.0622 2.45151 13.409 2.82732 12.9651 3.40205C12.5212 3.97677 12.3226 4.70375 12.4127 5.42434C12.5029 6.14493 12.8743 6.80062 13.4461 7.24831ZM8.6185 9.19531C8.7912 8.86829 9.02809 8.57946 9.315 8.3461C9.60191 8.11274 9.93294 7.93965 10.2883 7.83718C10.6436 7.73471 11.016 7.70497 11.3831 7.74974C11.7502 7.7945 12.1045 7.91285 12.4248 8.09771C12.7451 8.28257 13.0249 8.53014 13.2473 8.8256C13.4697 9.12107 13.6303 9.45836 13.7193 9.81731C13.8084 10.1763 13.8241 10.5495 13.7656 10.9146C13.7071 11.2798 13.5755 11.6294 13.3787 11.9426C13.0002 12.545 12.403 12.9773 11.7124 13.1486C11.0219 13.3199 10.2918 13.217 9.67564 12.8613C9.05943 12.5057 8.60503 11.9251 8.4079 11.2415C8.21077 10.5579 8.28626 9.82444 8.6185 9.19531ZM3.4375 9.19531H7.10875C6.86438 9.8932 6.81124 10.6438 6.95486 11.3691C7.09848 12.0945 7.43362 12.7682 7.9255 13.3203H7.5625C6.8536 13.3202 6.16199 13.5392 5.58234 13.9473C5.00269 14.3554 4.56332 14.9326 4.32437 15.6001C3.86283 15.4147 3.43069 15.1632 3.0415 14.8534C2.0075 14.0216 1.375 12.7923 1.375 11.2578C1.375 10.7108 1.5923 10.1862 1.97909 9.7994C2.36589 9.41261 2.89049 9.19531 3.4375 9.19531ZM14.4375 13.3203C15.1462 13.3203 15.8376 13.5393 16.417 13.9474C16.9964 14.3555 17.4356 14.9328 17.6742 15.6001C18.1418 15.4089 18.5749 15.1601 18.9585 14.8534C19.9925 14.0216 20.625 12.7923 20.625 11.2578C20.625 10.7108 20.4077 10.1862 20.0209 9.7994C19.6341 9.41261 19.1095 9.19531 18.5625 9.19531H14.8912C15.0425 9.62569 15.125 10.0891 15.125 10.5703C15.1263 11.5852 14.7521 12.5647 14.0745 13.3203H14.4375ZM16.3446 15.9713C16.445 16.2133 16.5 16.4801 16.5 16.7578C16.5 18.2923 15.8689 19.5216 14.8335 20.3534C13.8146 21.1716 12.4479 21.5703 11 21.5703C9.55212 21.5703 8.18537 21.1716 7.1665 20.3534C6.1325 19.5216 5.5 18.2923 5.5 16.7578C5.49927 16.4868 5.55213 16.2182 5.65552 15.9677C5.75891 15.7171 5.91081 15.4895 6.10247 15.2978C6.29414 15.1061 6.5218 14.9542 6.77236 14.8508C7.02292 14.7474 7.29145 14.6946 7.5625 14.6953H14.4375C14.846 14.6952 15.2454 14.8164 15.5849 15.0436C15.9244 15.2708 16.1888 15.5937 16.3446 15.9713Z" fill="#727171"/>
</svg>
