<svg width="24" height="24" viewBox="0 0 24 24" fill="none" xmlns="http://www.w3.org/2000/svg">
<path d="M15.2233 3.55213L15.2234 3.5522L21.2229 6.55193C21.3932 6.63734 21.5 6.81063 21.5 6.99998V20C21.5 20.1726 21.4106 20.3335 21.2614 20.4261L21.2608 20.4265C21.189 20.4712 21.107 20.4966 21.0225 20.5003C20.9381 20.5041 20.8541 20.486 20.7787 20.4478L20.7766 20.4468L15.2236 17.6708L14.9999 17.559L14.7763 17.6708L9.22433 20.4478L9.22425 20.4478C9.15479 20.4826 9.07818 20.5007 9.0005 20.5007C8.92282 20.5007 8.84621 20.4826 8.77675 20.4478L8.77661 20.4478L2.77713 17.448C2.60682 17.3626 2.5 17.1893 2.5 17L2.5 3.99998L2.5 3.99975C2.49996 3.91451 2.52171 3.83068 2.56319 3.75621C2.60467 3.68175 2.66449 3.61912 2.73698 3.57428C2.80948 3.52945 2.89223 3.50389 2.97738 3.50003C3.06248 3.49618 3.14715 3.51413 3.22336 3.55218C3.22341 3.5522 3.22345 3.55223 3.2235 3.55225L8.77636 6.32918L9.00002 6.44103L9.22367 6.32916L14.7757 3.55216L14.7757 3.55213C14.8452 3.51737 14.9218 3.49927 14.9995 3.49927C15.0772 3.49927 15.1538 3.51736 15.2233 3.55213ZM9.77639 7.17077L9.5 7.30897V7.61798V18.382V19.191L10.2236 18.8292L14.2236 16.8292L14.5 16.691V16.382V5.61798V4.80897L13.7764 5.17077L9.77639 7.17077ZM4.22361 5.17077L3.5 4.80897V5.61798V16.382V16.691L3.77639 16.8292L7.77639 18.8292L8.5 19.191V18.382V7.61798V7.30897L8.22361 7.17077L4.22361 5.17077ZM19.7764 18.8292L20.5 19.191V18.382V7.61798V7.30897L20.2236 7.17077L16.2236 5.17077L15.5 4.80897V5.61798V16.382V16.691L15.7764 16.8292L19.7764 18.8292Z" stroke="#46E3DA"/>
</svg>
